<svg width="957" height="181" viewBox="0 0 957 181" fill="none" xmlns="http://www.w3.org/2000/svg">
<g clip-path="url(#clip0_96_2)">
<path d="M957 146.186C957 165.231 941.649 180.619 922.651 180.619H34.8056C15.807 180.619 0.456055 165.231 0.456055 146.186V34.8897C0.456055 15.8451 15.807 0.457031 34.8056 0.457031H922.651C941.649 0.457031 957 15.8451 957 34.8897V146.186Z" fill="#FFD10A"/>
<path d="M240.751 180.619H34.8056C15.807 180.619 0.456055 165.231 0.456055 146.186V34.8897C0.456055 15.8451 15.807 0.457031 34.8056 0.457031H240.751" fill="white"/>
<path d="M240.751 181H34.8055C15.6549 181 0 165.383 0 146.186V34.8897C0 15.6928 15.5789 0 34.8055 0H240.751V0.837963H34.8055C16.1109 0.837963 0.835941 16.1498 0.835941 34.8897V146.186C0.835941 164.926 16.0349 180.162 34.7295 180.162H240.751V181Z" fill="#B1B3B6"/>
<path d="M101.909 107.259C101.909 107.259 55.8561 135.141 49.7005 117.848C49.7005 117.848 41.7971 98.3465 77.0586 74.1979C77.0586 74.1979 59.0479 75.0359 67.4833 64.828C67.4833 64.828 79.3384 51.4968 100.465 43.8027L97.9571 46.926C97.9571 46.926 79.2624 55.001 82.8342 63.99C84.886 69.1702 93.6254 62.9235 93.6254 62.9235L97.1212 64.1424C97.1212 64.1424 58.3639 89.0527 67.8633 108.021C67.8633 108.021 78.1985 120.895 99.173 105.736L101.833 107.183L101.909 107.259Z" fill="#0054A6"/>
<path d="M104.569 45.3263V47.8402C104.569 47.8402 118.476 40.9841 122.58 44.7169C122.58 44.7169 126.531 50.1255 104.341 62.6188V67.5704C104.341 67.5704 138.614 47.0022 141.046 69.3987C141.046 69.3987 143.554 89.1289 118.704 119.067C118.704 119.067 162.477 87.453 161.413 61.9332C161.413 61.9332 159.361 42.5839 126.987 53.4012C126.987 53.4012 139.222 43.4218 129.647 37.6323C129.647 37.6323 119.54 31.9951 104.569 45.3263Z" fill="#FFC20E"/>
<path d="M107.076 28.8716L104.341 122.038C143.25 113.506 193.102 103.45 205.337 104.898C205.337 104.898 209.061 107.183 202.07 108.63C202.07 108.63 99.7809 133.769 60.6437 152.052L55.248 133.16C55.248 133.16 75.8426 128.284 101.909 122.495C102.061 113.734 103.277 45.6309 99.6289 39.5366L107.076 28.7192V28.8716Z" fill="#00AE4D"/>
<path d="M203.362 124.551L202.678 124.704L200.55 121.657H199.714V124.628H199.03V117.924H200.702C201.386 117.924 201.842 118.076 202.298 118.381C202.678 118.686 202.906 119.143 202.906 119.752C202.906 119.981 202.906 120.209 202.754 120.438C202.678 120.666 202.526 120.819 202.45 120.971C202.298 121.123 202.146 121.276 201.918 121.352C201.69 121.428 201.538 121.504 201.31 121.58L203.438 124.551H203.362ZM201.766 118.914C201.766 118.914 201.158 118.609 200.626 118.609H199.638V121.2H200.55C201.082 121.2 201.462 121.123 201.69 120.895C201.994 120.666 202.146 120.362 202.146 119.904C202.146 119.447 201.994 119.143 201.766 118.99V118.914Z" fill="#231F20"/>
<path d="M200.778 127.065C197.662 127.065 195.154 124.552 195.154 121.428C195.154 118.305 197.662 115.791 200.778 115.791C203.894 115.791 206.401 118.305 206.401 121.428C206.401 124.552 203.894 127.065 200.778 127.065ZM200.778 116.4C198.042 116.4 195.762 118.686 195.762 121.428C195.762 124.171 198.042 126.456 200.778 126.456C203.514 126.456 205.794 124.171 205.794 121.428C205.794 118.686 203.514 116.4 200.778 116.4Z" fill="#231F20"/>
<path d="M272.973 63.9897H314.694L315.682 81.8155H313.326C312.414 76.1783 310.894 72.2932 308.843 70.0078C306.791 67.7987 304.131 66.656 300.787 66.656H290.452C289.616 66.656 289.008 66.8845 288.552 67.3416C288.096 67.7987 287.944 68.4843 287.944 69.3984V88.2145H292.428C294.86 88.2145 296.835 87.3765 298.279 85.6244C299.799 83.8723 300.559 81.2061 300.711 77.6257H303.143V102.079H300.711C300.559 98.0415 299.799 95.1467 298.203 93.3946C296.683 91.6425 294.632 90.8046 291.972 90.8046H287.868V111.83C287.868 112.592 288.096 113.201 288.628 113.582C289.16 113.963 289.996 114.191 291.136 114.191H299.267C308.083 114.191 313.174 108.554 314.542 97.2036H317.126L316.214 116.858H272.821V114.191H276.393C277.761 114.191 278.749 113.963 279.357 113.43C279.889 112.972 280.193 112.211 280.193 111.297V69.4746C280.193 68.5605 279.965 67.8749 279.433 67.4178C278.901 66.9607 278.141 66.7322 277.077 66.7322H272.745V64.0659L272.973 63.9897Z" fill="#0956A4"/>
<path d="M358.543 113.125L359.835 115.105C358.087 116.857 356.187 117.772 354.059 117.772C352.463 117.772 351.095 117.315 349.955 116.477C348.815 115.562 347.903 114.039 347.067 111.83C344.788 114.191 342.812 115.791 341.14 116.553C339.468 117.391 337.34 117.772 334.984 117.772C331.565 117.772 328.981 117.01 327.157 115.562C325.333 114.115 324.497 112.211 324.497 109.849C324.497 106.345 326.549 103.526 330.577 101.165C334.68 98.8794 340.076 97.3558 346.839 96.594V91.4901C346.839 89.6618 346.08 88.1382 344.636 86.8432C343.192 85.5481 341.368 84.9387 339.088 84.9387C337.036 84.9387 335.212 85.3958 333.768 86.2338C332.704 86.8432 332.173 87.5288 332.173 88.1382C332.173 88.5191 332.476 89.0524 333.008 89.8141C333.692 90.7283 334.072 91.6424 334.072 92.328C334.072 93.3945 333.692 94.3087 333.008 94.9181C332.325 95.6037 331.413 95.9084 330.273 95.9084C329.057 95.9084 328.069 95.5275 327.309 94.6896C326.549 93.8516 326.093 92.8613 326.093 91.5662C326.093 89.2047 327.385 87.0717 330.045 85.0911C332.704 83.1104 336.2 82.1201 340.456 82.1201C344.408 82.1201 347.447 82.9581 349.499 84.7102C351.551 86.4623 352.615 88.5191 352.615 91.033V109.316C352.615 110.916 352.843 112.134 353.375 112.896C353.907 113.658 354.591 114.039 355.427 114.039C356.339 114.039 357.327 113.658 358.315 112.896L358.543 113.125ZM346.839 99.0317C340.836 99.8697 336.504 101.241 333.996 103.069C332.097 104.517 331.185 106.497 331.185 109.163C331.185 110.992 331.641 112.439 332.628 113.429C333.616 114.496 334.832 114.953 336.428 114.953C339.24 114.953 341.672 113.887 343.724 111.754C345.776 109.621 346.839 106.954 346.839 103.755V98.9556V99.0317Z" fill="#0956A4"/>
<path d="M367.814 104.212C369.258 108.325 371.006 111.144 372.906 112.744C374.806 114.344 377.162 115.105 379.973 115.105C382.557 115.105 384.533 114.572 385.901 113.429C387.269 112.287 387.953 110.839 387.953 109.163C387.953 108.173 387.725 107.259 387.193 106.573C386.661 105.812 385.977 105.278 385.065 104.897C384.153 104.517 381.797 103.983 377.998 103.298C374.35 102.612 371.842 101.85 370.398 101.012C368.954 100.251 367.89 99.1079 367.054 97.7366C366.294 96.3654 365.838 94.8419 365.838 93.2421C365.838 90.8044 366.674 88.5952 368.27 86.5384C370.398 84.0245 373.362 82.7295 377.162 82.7295C380.049 82.7295 382.785 83.6436 385.217 85.4719L387.573 82.958H389.017L389.929 94.918H387.573C386.509 91.5662 385.141 89.1285 383.317 87.6049C381.569 86.1575 379.365 85.3957 376.706 85.3957C374.426 85.3957 372.678 85.929 371.386 87.0717C370.094 88.2143 369.486 89.5094 369.486 91.1091C369.486 92.4803 370.094 93.6992 371.234 94.6133C372.374 95.6037 374.654 96.2893 378.074 96.8987C382.025 97.5843 384.609 98.1175 385.749 98.5746C387.725 99.2602 389.169 100.403 390.309 101.85C391.373 103.298 391.905 105.126 391.905 107.259C391.905 110.23 390.765 112.668 388.409 114.724C386.053 116.781 383.165 117.772 379.593 117.772C376.326 117.772 373.21 116.705 370.398 114.496L367.814 117.467H365.914L365.23 104.136H367.586L367.814 104.212Z" fill="#0956A4"/>
<path d="M406.344 69.7031H408.7V83.3391H419.491V86.6148H408.7V108.097C408.7 109.925 409.156 111.373 409.992 112.363C410.904 113.353 411.968 113.81 413.336 113.81C414.931 113.81 416.299 113.049 417.439 111.525C418.579 110.002 419.263 107.564 419.415 104.06H421.771C421.619 108.478 420.631 111.83 418.731 113.963C416.831 116.096 414.399 117.162 411.436 117.162C408.7 117.162 406.496 116.401 404.976 114.877C403.456 113.353 402.62 111.373 402.62 108.935V86.4624H396.845V83.9485C399.505 83.4914 401.48 82.3488 402.924 80.5967C404.976 77.9304 406.116 74.2739 406.268 69.4746L406.344 69.7031Z" fill="#0956A4"/>
<path d="M457.26 100.327H433.398C433.55 105.431 434.462 109.011 436.285 111.144C438.337 113.506 440.921 114.648 444.113 114.648C448.749 114.648 452.472 111.982 455.36 106.65L457.64 107.64C454.144 114.42 449.129 117.772 442.593 117.772C438.109 117.772 434.386 116.172 431.346 112.896C428.306 109.621 426.786 105.507 426.786 100.479C426.786 95.0704 428.306 90.6521 431.27 87.3002C434.31 83.9484 437.957 82.2725 442.365 82.2725C445.557 82.2725 448.369 83.1104 450.724 84.7863C453.08 86.4623 454.828 88.8238 456.044 91.9471C456.88 94.1563 457.336 96.8987 457.336 100.251L457.26 100.327ZM433.398 97.8129H447.837C448.673 97.8129 449.357 97.5082 449.812 96.8987C450.268 96.2893 450.496 95.299 450.496 93.9278C450.496 91.3377 449.661 89.0523 448.065 87.2241C446.469 85.3958 444.493 84.4816 442.289 84.4816C439.781 84.4816 437.729 85.6243 435.981 87.8335C434.234 90.0427 433.398 93.3945 433.322 97.8129H433.398Z" fill="#0956A4"/>
<path d="M461.896 83.3389L473.903 82.7295V96.2893C475.195 91.8709 476.715 88.4429 478.539 86.1575C480.363 83.8722 482.567 82.7295 485.226 82.7295C487.05 82.7295 488.494 83.2627 489.558 84.4054C490.622 85.5481 491.154 86.9955 491.154 88.8238C491.154 90.3473 490.774 91.49 490.09 92.328C489.33 93.1659 488.494 93.5468 487.354 93.5468C486.214 93.5468 485.454 93.1659 484.771 92.4803C484.087 91.7947 483.783 90.8044 483.783 89.5856C483.783 88.8238 483.935 88.062 484.315 87.3764C484.695 86.767 484.847 86.3861 484.847 86.2337C484.847 85.8528 484.619 85.7005 484.163 85.7005C483.175 85.7005 482.111 86.2337 480.819 87.3764C479.147 88.9761 477.779 91.1853 476.867 93.9277C475.423 98.2699 474.739 101.698 474.739 104.288V111.449C474.739 112.287 475.043 112.896 475.575 113.277C476.107 113.734 477.095 113.886 478.463 113.886H482.719V116.553H461.972V113.886H465.316C466.456 113.886 467.292 113.658 467.824 113.201C468.356 112.744 468.66 112.211 468.66 111.601V90.2712C468.66 88.6714 468.356 87.4526 467.596 86.6908C466.912 85.929 465.924 85.5481 464.632 85.5481H461.744V83.0342L461.896 83.3389Z" fill="#0956A4"/>
<path d="M494.802 83.3389L505.897 82.6533C506.353 84.7863 506.657 87.224 506.885 90.0426C508.405 87.6049 510.153 85.7766 512.204 84.5578C514.256 83.3389 516.536 82.7295 519.12 82.7295C521.324 82.7295 523.148 83.1866 524.667 84.0245C526.187 84.8625 527.327 86.2337 528.239 88.1382C529.151 90.0426 529.607 92.0994 529.607 94.461V110.763C529.607 111.982 529.911 112.82 530.443 113.353C530.975 113.886 531.887 114.115 533.179 114.115H535.535V116.781H517.904V114.115H519.576C521.172 114.115 522.236 113.886 522.844 113.353C523.452 112.82 523.756 112.134 523.756 111.068V96.7463C523.756 93.623 523.3 91.3377 522.312 89.8141C520.944 87.6811 518.968 86.6146 516.232 86.6146C513.496 86.6146 511.292 87.6811 509.545 89.8903C507.721 92.0233 506.885 94.8419 506.885 98.3461V110.763C506.885 111.982 507.189 112.82 507.721 113.353C508.253 113.886 509.165 114.115 510.456 114.115H512.736V116.781H495.106V114.115H497.385C498.525 114.115 499.437 113.886 500.045 113.429C500.653 112.972 500.957 112.363 500.957 111.677V90.0426C500.957 88.5952 500.577 87.5287 499.817 86.767C499.057 86.0052 497.917 85.6243 496.473 85.6243H494.726V83.2627L494.802 83.3389Z" fill="#0956A4"/>
<path d="M560.688 63.9897H588.123C593.518 63.9897 597.622 65.2086 600.51 67.5701C603.397 69.9317 604.765 72.9026 604.765 76.483C604.765 79.454 603.777 82.044 601.802 84.1009C599.826 86.1577 596.786 87.8336 592.834 89.0525C597.774 90.119 601.498 91.7187 604.005 94.0041C606.513 96.2894 607.729 99.108 607.729 102.536C607.729 105.126 607.045 107.488 605.601 109.544C604.157 111.601 601.878 113.277 598.534 114.725C595.266 116.096 591.542 116.858 587.363 116.858H560.764V114.191H565.096C566.388 114.191 567.376 113.963 567.984 113.582C568.592 113.125 568.896 112.668 568.896 112.135V69.8555C568.896 68.8652 568.592 68.1034 567.984 67.5701C567.376 67.0369 566.54 66.8084 565.4 66.8084H560.764V64.1421L560.688 63.9897ZM576.419 88.2145H586.375C589.414 88.2145 591.846 87.3004 593.67 85.4721C595.494 83.6438 596.406 80.749 596.406 76.6354C596.406 74.1215 595.95 72.1408 595.114 70.6935C594.278 69.2461 592.986 68.2557 591.314 67.5701C589.642 66.8845 586.831 66.5798 582.727 66.5798C579.839 66.5798 578.091 66.8083 577.407 67.1892C576.723 67.5701 576.343 68.3319 576.343 69.3984V88.2145H576.419ZM576.419 90.8807V111.22C576.419 112.135 576.723 112.896 577.255 113.353C577.787 113.81 578.851 114.039 580.295 114.039H586.679C590.934 114.039 594.05 113.125 596.026 111.22C598.078 109.316 599.066 106.421 599.066 102.46C599.066 98.8033 598.002 95.9847 595.95 93.9279C593.822 91.8711 591.01 90.8046 587.287 90.8046H576.495L576.419 90.8807Z" fill="#0956A4"/>
<path d="M647.55 113.125L648.842 115.105C647.094 116.857 645.195 117.772 643.067 117.772C641.471 117.772 640.103 117.315 638.963 116.477C637.823 115.562 636.911 114.039 636.075 111.83C633.795 114.191 631.82 115.791 630.148 116.553C628.4 117.391 626.348 117.772 623.992 117.772C620.572 117.772 617.989 117.01 616.165 115.562C614.417 114.115 613.505 112.211 613.505 109.849C613.505 106.345 615.557 103.526 619.584 101.165C623.688 98.8794 629.084 97.3558 635.847 96.594V91.4901C635.847 89.6618 635.087 88.1382 633.643 86.8432C632.2 85.5481 630.376 84.9387 628.096 84.9387C626.044 84.9387 624.22 85.3958 622.776 86.2338C621.712 86.8432 621.18 87.5288 621.18 88.1382C621.18 88.5191 621.484 89.0524 622.016 89.8141C622.7 90.7283 623.08 91.6424 623.08 92.328C623.08 93.3945 622.776 94.3087 622.016 94.9181C621.256 95.5275 620.42 95.9084 619.28 95.9084C618.065 95.9084 617.077 95.5275 616.317 94.6896C615.557 93.8516 615.101 92.8613 615.101 91.5662C615.101 89.2047 616.393 87.0717 619.052 85.0911C621.712 83.1104 625.208 82.1201 629.464 82.1201C633.415 82.1201 636.455 82.9581 638.583 84.7102C640.711 86.4623 641.699 88.5191 641.699 91.033V109.316C641.699 110.916 641.927 112.134 642.459 112.896C642.991 113.658 643.675 114.039 644.511 114.039C645.423 114.039 646.411 113.658 647.398 112.896L647.55 113.125ZM635.847 99.0317C629.844 99.8697 625.512 101.241 623.004 103.069C621.104 104.517 620.192 106.497 620.192 109.163C620.192 110.992 620.648 112.439 621.636 113.429C622.624 114.496 623.84 114.953 625.436 114.953C628.248 114.953 630.68 113.887 632.732 111.754C634.783 109.621 635.847 106.954 635.847 103.755V98.9556V99.0317Z" fill="#0956A4"/>
<path d="M652.87 83.3389L663.965 82.6533C664.421 84.7863 664.725 87.224 664.953 90.0426C666.473 87.6049 668.221 85.7766 670.273 84.5578C672.325 83.3389 674.605 82.7295 677.188 82.7295C679.392 82.7295 681.216 83.1866 682.736 84.0245C684.256 84.8625 685.396 86.2337 686.308 88.1382C687.22 90.0426 687.676 92.0994 687.676 94.461V110.763C687.676 111.982 687.98 112.82 688.512 113.353C689.044 113.886 689.955 114.115 691.247 114.115H693.603V116.781H676.048V114.115H677.72C679.316 114.115 680.38 113.886 680.988 113.353C681.596 112.82 681.9 112.134 681.9 111.068V96.7463C681.9 93.623 681.444 91.3377 680.456 89.8141C679.088 87.6811 677.112 86.6146 674.377 86.6146C671.641 86.6146 669.437 87.6811 667.689 89.8903C665.865 92.0233 665.029 94.8419 665.029 98.3461V110.763C665.029 111.982 665.333 112.82 665.865 113.353C666.397 113.886 667.309 114.115 668.601 114.115H670.957V116.781H653.326V114.115H655.606C656.746 114.115 657.658 113.886 658.266 113.429C658.874 112.972 659.178 112.363 659.178 111.677V90.0426C659.178 88.5952 658.798 87.5287 658.038 86.767C657.278 86.0052 656.138 85.6243 654.694 85.6243H653.022V83.2627L652.87 83.3389Z" fill="#0956A4"/>
<path d="M696.871 63.9898L709.638 63.3804V99.8698L720.505 90.4237C721.569 89.5096 722.101 88.6716 722.101 87.986C722.101 87.3766 721.797 86.9195 721.189 86.6148C720.277 86.1577 718.758 85.853 716.706 85.853V83.3391H734.488V85.853C730.993 86.0054 728.333 86.9957 726.433 88.6716L718.758 95.4515L731.221 112.592C731.981 113.582 733.273 114.115 735.172 114.115H736.996V116.781H718.758V114.115H720.581C721.949 114.115 722.861 113.963 723.317 113.734C723.773 113.506 724.001 113.201 724.001 112.896C724.001 112.592 723.849 112.211 723.621 111.906L714.502 99.1081L709.638 103.374V111.83C709.638 112.515 709.866 113.049 710.322 113.353C710.93 113.811 711.842 114.039 712.982 114.039H715.338V116.705H697.403V114.039H700.291C701.507 114.039 702.343 113.811 702.951 113.277C703.483 112.744 703.787 112.135 703.787 111.297V70.0079C703.787 68.9414 703.407 68.1796 702.723 67.6464C701.735 66.9608 700.367 66.5799 698.695 66.5799H696.871V63.9136V63.9898Z" fill="#0956A4"/>
<path d="M761.314 63.9897H787.305C793.156 63.9897 797.64 65.361 800.756 67.951C803.871 70.6173 805.391 74.1215 805.391 78.3875C805.391 82.6535 803.947 86.0053 801.136 88.2145C797.184 91.3378 792.396 92.8614 786.621 92.8614H777.197V110.916C777.197 111.982 777.425 112.744 777.957 113.201C778.641 113.734 779.553 114.039 780.617 114.039H786.621V116.705H761.314V114.039H766.634C767.698 114.039 768.458 113.81 768.914 113.43C769.37 113.049 769.674 112.439 769.674 111.754V69.627C769.674 68.5605 769.37 67.7987 768.762 67.3416C768.154 66.8845 766.938 66.656 765.266 66.656H761.39V63.9897H761.314ZM777.197 90.3475H784.341C788.9 90.3475 792.168 89.4333 794.144 87.5289C796.12 85.6244 797.184 82.5011 797.184 78.1589C797.184 75.1118 796.728 72.7503 795.816 71.1505C794.904 69.5508 793.612 68.3319 791.864 67.494C790.116 66.7322 787.229 66.3513 783.277 66.3513C780.617 66.3513 779.021 66.5798 778.261 67.1131C777.577 67.6463 777.197 68.4843 777.197 69.7031V90.3475Z" fill="#0956A4"/>
<path d="M809.495 63.9897H833.889V66.656H828.038C827.126 66.656 826.442 66.8845 825.986 67.4178C825.53 67.8749 825.302 68.6366 825.302 69.7031V111.373C825.302 112.363 825.606 113.049 826.138 113.506C826.67 113.963 827.81 114.115 829.482 114.115H836.853C840.805 114.115 843.996 112.82 846.504 110.154C849.012 107.564 850.836 102.993 851.976 96.4418H854.484L853.268 116.781H809.419V114.115H813.751C815.195 114.115 816.258 113.81 816.866 113.277C817.474 112.744 817.778 111.83 817.778 110.611V69.3984C817.778 68.4843 817.55 67.8749 817.018 67.4178C816.486 66.9607 815.802 66.7322 814.815 66.7322H809.495V64.0659V63.9897Z" fill="#0956A4"/>
<path d="M898.029 68.1035L900.461 62.9995H902.74L903.652 84.2533H901.296C899.701 78.3114 897.725 73.893 895.369 71.0744C892.405 67.494 888.909 65.7419 884.806 65.7419C880.398 65.7419 876.826 67.7226 874.014 71.6839C871.203 75.6451 869.835 82.3488 869.835 91.7188C869.835 99.6414 871.431 105.659 874.622 109.849C877.358 113.353 881.158 115.106 886.022 115.106C890.277 115.106 893.849 113.734 896.813 110.992C899.701 108.25 901.6 104.136 902.512 98.5748H905.02C904.26 104.821 902.132 109.697 898.561 113.049C894.989 116.401 890.505 118.153 885.11 118.153C880.702 118.153 876.674 117.01 873.026 114.801C869.379 112.592 866.415 109.392 864.211 105.279C862.007 101.089 860.943 96.5942 860.943 91.6426C860.943 86.3863 862.083 81.4347 864.363 76.864C866.643 72.2171 869.531 68.7891 873.102 66.4275C876.674 64.1422 880.474 62.9233 884.502 62.9233C886.782 62.9233 888.985 63.3042 891.113 64.066C893.241 64.8278 895.597 66.199 898.105 68.1035H898.029Z" fill="#0956A4"/>
<path d="M918.624 109.011C919.84 109.011 920.828 109.468 921.663 110.306C922.499 111.144 922.879 112.211 922.879 113.353C922.879 114.496 922.499 115.639 921.663 116.477C920.828 117.315 919.84 117.772 918.624 117.772C917.408 117.772 916.42 117.315 915.584 116.477C914.748 115.639 914.292 114.572 914.292 113.353C914.292 112.135 914.748 111.068 915.584 110.23C916.42 109.392 917.484 108.935 918.7 108.935L918.624 109.011Z" fill="#0956A4"/>
</g>
<defs>
<clipPath id="clip0_96_2">
<rect width="957" height="181" fill="white"/>
</clipPath>
</defs>
</svg>
