<svg width="39" height="44" viewBox="0 0 39 44" fill="none" xmlns="http://www.w3.org/2000/svg">
<path d="M36.07 16.0298H2.67C1.74768 16.0298 1 16.7775 1 17.6998V41.0798C1 42.0021 1.74768 42.7498 2.67 42.7498H36.07C36.9923 42.7498 37.74 42.0021 37.74 41.0798V17.6998C37.74 16.7775 36.9923 16.0298 36.07 16.0298Z" stroke="#0E1435" stroke-width="1.5" stroke-linecap="round" stroke-linejoin="round"/>
<path d="M19.3683 31.8953C20.7518 31.8953 21.8733 30.7737 21.8733 29.3903C21.8733 28.0068 20.7518 26.8853 19.3683 26.8853C17.9848 26.8853 16.8633 28.0068 16.8633 29.3903C16.8633 30.7737 17.9848 31.8953 19.3683 31.8953Z" fill="#3354FF"/>
<path d="M11.0195 16.03V9.35C11.0195 7.13544 11.8993 5.01159 13.4652 3.44566C15.0311 1.87973 17.155 1 19.3695 1C21.5841 1 23.7079 1.87973 25.2739 3.44566C26.8398 5.01159 27.7195 7.13544 27.7195 9.35V16.03" stroke="#0E1435" stroke-width="1.5" stroke-linecap="round" stroke-linejoin="round"/>
</svg>
