<svg width="179" height="82" viewBox="0 0 179 82" fill="none" xmlns="http://www.w3.org/2000/svg">
<path d="M33.4076 81.1316C31.2297 81.1316 29.2382 80.5822 27.4332 79.4835C25.6477 78.3847 24.2253 76.9132 23.1658 75.0689C22.1259 73.205 21.606 71.135 21.606 68.8591L21.6648 50.0531C21.6648 47.8164 22.1749 45.7955 23.1952 43.9904C24.2155 42.1657 25.6183 40.704 27.4037 39.6053C29.2088 38.4869 31.2101 37.9277 33.4076 37.9277C35.6443 37.9277 37.6357 38.4673 39.3819 39.5464C41.1477 40.6255 42.5506 42.0872 43.5905 43.9315C44.65 45.7562 45.1797 47.7967 45.1797 50.0531V52.8195C45.1797 52.9765 45.1012 53.055 44.9443 53.055H38.1753C38.0183 53.055 37.9398 52.9765 37.9398 52.8195V50.0531C37.9398 48.7189 37.5082 47.5711 36.6449 46.6097C35.7816 45.6483 34.7025 45.1676 33.4076 45.1676C31.9753 45.1676 30.8765 45.6581 30.1113 46.6391C29.3462 47.6201 28.9636 48.7581 28.9636 50.0531V68.8591C28.9636 70.3306 29.3952 71.5373 30.2585 72.479C31.1218 73.4012 32.1715 73.8623 33.4076 73.8623C34.7025 73.8623 35.7816 73.3521 36.6449 72.3319C37.5082 71.292 37.9398 70.1344 37.9398 68.8591V66.0632C37.9398 65.9062 38.0183 65.8278 38.1753 65.8278H45.0031C45.1601 65.8278 45.2386 65.9062 45.2386 66.0632V68.8591C45.2386 71.1154 44.7088 73.1756 43.6493 75.0395C42.5702 76.8838 41.1477 78.3651 39.3819 79.4835C37.6161 80.5822 35.6246 81.1316 33.4076 81.1316Z" fill="black"/>
<path d="M56.687 80.543H49.8591C49.7022 80.543 49.6237 80.4449 49.6237 80.2487L49.6826 38.8401C49.6826 38.6831 49.7807 38.6046 49.9769 38.6046H56.687C56.8832 38.6046 56.9813 38.6831 56.9813 38.8401L56.9224 55.2328H65.9576V38.8401C65.9576 38.6831 66.0361 38.6046 66.193 38.6046H72.9032C73.0994 38.6046 73.1975 38.6831 73.1975 38.8401L73.3152 80.2487C73.3152 80.4449 73.2171 80.543 73.0209 80.543H66.2519C66.0557 80.543 65.9576 80.4449 65.9576 80.2487V62.5316H56.9224V80.2487C56.9224 80.4449 56.844 80.543 56.687 80.543Z" fill="black"/>
<path d="M76.1994 80.2487L83.6747 38.8401C83.7139 38.6831 83.812 38.6046 83.969 38.6046H92.7098C92.8668 38.6046 92.9649 38.6831 93.0041 38.8401L100.185 80.2487C100.205 80.4449 100.126 80.543 99.9497 80.543H93.269C93.0728 80.543 92.9649 80.4449 92.9453 80.2487L92.2978 75.8341H84.0867L83.4392 80.2487C83.4196 80.4449 83.3215 80.543 83.1449 80.543H76.4348C76.2778 80.543 76.1994 80.4449 76.1994 80.2487ZM88.619 52.4664L88.2658 50.2296L88.001 52.4664L85.2934 69.3888H91.0912L88.619 52.4664Z" fill="black"/>
<path d="M110.515 80.543H104.482C104.168 80.543 104.011 80.4056 104.011 80.1309L103.952 39.0755C103.952 38.7616 104.109 38.6046 104.423 38.6046H109.868L120.051 62.355L119.756 39.0755C119.756 38.7616 119.933 38.6046 120.286 38.6046H126.26C126.496 38.6046 126.614 38.7616 126.614 39.0755L126.673 80.1898C126.673 80.4252 126.574 80.543 126.378 80.543H121.081L110.633 58.3524L111.074 80.0721C111.074 80.386 110.888 80.543 110.515 80.543Z" fill="black"/>
<path d="M142.948 81.1316C140.77 81.1316 138.808 80.592 137.061 79.5129C135.296 78.4338 133.873 76.9819 132.794 75.1572C131.735 73.3325 131.205 71.292 131.205 69.0357V49.9353C131.205 47.7379 131.744 45.7366 132.823 43.9315C133.883 42.1069 135.305 40.655 137.091 39.5758C138.876 38.4771 140.829 37.9277 142.948 37.9277C145.165 37.9277 147.166 38.4575 148.951 39.517C150.737 40.5961 152.149 42.0382 153.189 43.8432C154.249 45.6483 154.779 47.679 154.779 49.9353V52.7018C154.779 52.8588 154.68 52.9372 154.484 52.9372H147.715C147.558 52.9372 147.48 52.8588 147.48 52.7018V50.4062C147.48 48.8758 147.048 47.6103 146.185 46.6097C145.322 45.6091 144.242 45.1088 142.948 45.1088C141.79 45.1088 140.76 45.5895 139.857 46.5508C138.955 47.5122 138.504 48.6404 138.504 49.9353V69.0357C138.504 70.3502 138.945 71.4882 139.828 72.4496C140.711 73.3914 141.751 73.8623 142.948 73.8623C144.242 73.8623 145.322 73.4012 146.185 72.479C147.048 71.5373 147.48 70.3895 147.48 69.0357V66.0632H143.271C143.055 66.0632 142.948 65.9651 142.948 65.7689V59.0293C142.948 58.8331 143.055 58.735 143.271 58.735H154.543C154.7 58.735 154.779 58.8331 154.779 59.0293V69.0357C154.779 71.292 154.249 73.3325 153.189 75.1572C152.11 76.9819 150.688 78.4338 148.922 79.5129C147.156 80.592 145.165 81.1316 142.948 81.1316Z" fill="black"/>
<path d="M178.764 80.543H159.281C159.124 80.543 159.046 80.4449 159.046 80.2487L159.105 38.8401C159.105 38.6831 159.183 38.6046 159.34 38.6046H178.705C178.862 38.6046 178.941 38.7027 178.941 38.8989V45.6385C178.941 45.7955 178.862 45.8739 178.705 45.8739H166.345V55.2917H178.705C178.862 55.2917 178.941 55.3702 178.941 55.5271L179 62.355C179 62.5119 178.921 62.5904 178.764 62.5904H166.345V73.1265H178.764C178.921 73.1265 179 73.2246 179 73.4208V80.3075C179 80.4645 178.921 80.543 178.764 80.543Z" fill="black"/>
<path d="M9.22312 27.0999C7.57874 27.0999 6.10745 26.8078 4.80925 26.2236C3.51105 25.6394 2.48331 24.7631 1.72603 23.5947C0.990381 22.4047 0.622559 20.9226 0.622559 19.1484V18.4668H3.31632V19.1484C3.31632 21.0308 3.86805 22.4372 4.97152 23.3675C6.07499 24.2763 7.49219 24.7306 9.22312 24.7306C10.9973 24.7306 12.3496 24.3304 13.28 23.5298C14.2104 22.7293 14.6756 21.7232 14.6756 20.5115C14.6756 19.6677 14.4592 18.9969 14.0265 18.4993C13.6154 18.0017 13.0312 17.6014 12.2739 17.2985C11.5166 16.9739 10.6295 16.6926 9.61258 16.4546L7.92492 16.0327C6.60509 15.6865 5.43671 15.2646 4.41979 14.767C3.40287 14.2693 2.60231 13.6202 2.01812 12.8197C1.45557 11.9975 1.17429 10.9481 1.17429 9.67155C1.17429 8.39499 1.48802 7.29152 2.11549 6.36115C2.76459 5.43077 3.66251 4.71676 4.80925 4.21912C5.97763 3.72148 7.3191 3.47266 8.83366 3.47266C10.3699 3.47266 11.7438 3.74311 12.9554 4.28403C14.1887 4.80331 15.1516 5.58223 15.8439 6.62079C16.5579 7.63771 16.9149 8.92509 16.9149 10.4829V11.846H14.2212V10.4829C14.2212 9.37946 13.9832 8.49236 13.5072 7.82162C13.0528 7.15088 12.4145 6.65324 11.5923 6.32869C10.7918 6.00414 9.87222 5.84187 8.83366 5.84187C7.34073 5.84187 6.1399 6.17724 5.23116 6.84797C4.32242 7.49707 3.86805 8.42745 3.86805 9.6391C3.86805 10.4397 4.06278 11.0888 4.45224 11.5864C4.8417 12.084 5.39344 12.4951 6.10745 12.8197C6.82145 13.1226 7.6761 13.3931 8.67139 13.6311L10.359 14.053C11.6789 14.3342 12.8581 14.7237 13.8966 15.2213C14.9568 15.6974 15.8007 16.3573 16.4281 17.2011C17.0556 18.0233 17.3693 19.1051 17.3693 20.4466C17.3693 21.7881 17.0339 22.9564 16.3632 23.9517C15.6925 24.947 14.7405 25.7259 13.5072 26.2885C12.2955 26.8294 10.8675 27.0999 9.22312 27.0999Z" fill="black"/>
<path d="M26.1649 26.6455V6.3936H18.8625V3.92703H36.1934V6.3936H28.8911V26.6455H26.1649Z" fill="black"/>
<path d="M46.8919 27.0999C44.1873 27.0999 42.0237 26.3209 40.4009 24.7631C38.7998 23.1836 37.9992 20.8901 37.9992 17.8827V12.6899C37.9992 9.68237 38.7998 7.39971 40.4009 5.84187C42.0237 4.26239 44.1873 3.47266 46.8919 3.47266C49.6181 3.47266 51.7818 4.26239 53.3829 5.84187C55.0056 7.39971 55.817 9.68237 55.817 12.6899V17.8827C55.817 20.8901 55.0056 23.1836 53.3829 24.7631C51.7818 26.3209 49.6181 27.0999 46.8919 27.0999ZM46.8919 24.6657C48.8608 24.6657 50.3862 24.0816 51.468 22.9132C52.5499 21.7232 53.0908 20.0788 53.0908 17.98V12.5925C53.0908 10.4937 52.5499 8.86018 51.468 7.6918C50.3862 6.50179 48.8608 5.90678 46.8919 5.90678C44.9446 5.90678 43.43 6.50179 42.3482 7.6918C41.2664 8.86018 40.7255 10.4937 40.7255 12.5925V17.98C40.7255 20.0788 41.2664 21.7232 42.3482 22.9132C43.43 24.0816 44.9446 24.6657 46.8919 24.6657Z" fill="black"/>
<path d="M60.3589 26.6455V3.92703H69.5437C70.9501 3.92703 72.1834 4.17585 73.2435 4.67349C74.3254 5.1495 75.1692 5.84187 75.775 6.75061C76.3809 7.63771 76.6838 8.70872 76.6838 9.96365V10.3207C76.6838 11.8136 76.3268 12.9928 75.6128 13.8582C74.8988 14.7237 74.0549 15.3079 73.0813 15.6108V16.0652C73.8602 16.0868 74.4985 16.3465 74.9961 16.8441C75.5154 17.3201 75.775 18.0449 75.775 19.0186V26.6455H73.0813V19.3431C73.0813 18.694 72.8974 18.1964 72.5295 17.8502C72.1834 17.504 71.6533 17.3309 70.9392 17.3309H63.0851V26.6455H60.3589ZM63.0851 14.8643H69.284C70.777 14.8643 71.9237 14.5073 72.7243 13.7933C73.5465 13.0577 73.9576 12.0408 73.9576 10.7426V10.5154C73.9576 9.21718 73.5573 8.21108 72.7567 7.49707C71.9562 6.76143 70.7986 6.3936 69.284 6.3936H63.0851V14.8643Z" fill="black"/>
<path d="M80.8334 26.6455V3.92703H83.5597V26.6455H80.8334Z" fill="black"/>
<path d="M88.757 26.6455V3.92703H102.745V6.3936H91.4832V13.9881H101.836V16.4546H91.4832V24.1789H102.907V26.6455H88.757Z" fill="black"/>
<path d="M114.607 27.0999C112.962 27.0999 111.491 26.8078 110.193 26.2236C108.895 25.6394 107.867 24.7631 107.11 23.5947C106.374 22.4047 106.006 20.9226 106.006 19.1484V18.4668H108.7V19.1484C108.7 21.0308 109.252 22.4372 110.355 23.3675C111.458 24.2763 112.876 24.7306 114.607 24.7306C116.381 24.7306 117.733 24.3304 118.663 23.5298C119.594 22.7293 120.059 21.7232 120.059 20.5115C120.059 19.6677 119.843 18.9969 119.41 18.4993C118.999 18.0017 118.415 17.6014 117.657 17.2985C116.9 16.9739 116.013 16.6926 114.996 16.4546L113.308 16.0327C111.989 15.6865 110.82 15.2646 109.803 14.767C108.786 14.2693 107.986 13.6202 107.402 12.8197C106.839 11.9975 106.558 10.9481 106.558 9.67155C106.558 8.39499 106.872 7.29152 107.499 6.36115C108.148 5.43077 109.046 4.71676 110.193 4.21912C111.361 3.72148 112.703 3.47266 114.217 3.47266C115.753 3.47266 117.127 3.74311 118.339 4.28403C119.572 4.80331 120.535 5.58223 121.227 6.62079C121.941 7.63771 122.298 8.92509 122.298 10.4829V11.846H119.605V10.4829C119.605 9.37946 119.367 8.49236 118.891 7.82162C118.436 7.15088 117.798 6.65324 116.976 6.32869C116.175 6.00414 115.256 5.84187 114.217 5.84187C112.724 5.84187 111.523 6.17724 110.615 6.84797C109.706 7.49707 109.252 8.42745 109.252 9.6391C109.252 10.4397 109.446 11.0888 109.836 11.5864C110.225 12.084 110.777 12.4951 111.491 12.8197C112.205 13.1226 113.06 13.3931 114.055 13.6311L115.743 14.053C117.062 14.3342 118.242 14.7237 119.28 15.2213C120.34 15.6974 121.184 16.3573 121.812 17.2011C122.439 18.0233 122.753 19.1051 122.753 20.4466C122.753 21.7881 122.417 22.9564 121.747 23.9517C121.076 24.947 120.124 25.7259 118.891 26.2885C117.679 26.8294 116.251 27.0999 114.607 27.0999Z" fill="black"/>
<path d="M146.772 16.1852C146.772 17.5209 146.546 18.8566 146.093 20.1923C145.64 21.528 144.983 22.6995 144.123 23.707C143.252 24.7483 142.199 25.586 140.965 26.2199C139.743 26.8424 138.322 27.1537 136.703 27.1537C134.824 27.1537 133.296 26.5481 132.119 25.337C130.953 24.1258 130.37 22.4958 130.37 20.447C130.37 18.9415 130.619 17.5379 131.117 16.2362C131.615 14.9344 132.283 13.7912 133.121 12.8064C133.97 11.8216 135.017 11.0293 136.262 10.4293C137.518 9.81808 138.877 9.51245 140.337 9.51245C142.352 9.51245 143.925 10.1294 145.057 11.3632C146.2 12.5857 146.772 14.193 146.772 16.1852ZM143.308 15.54C143.308 13.9327 143.02 12.7272 142.442 11.9235C141.876 11.1198 141.056 10.718 139.98 10.718C139.041 10.718 138.152 11.0066 137.315 11.5839C136.488 12.1612 135.775 13.1007 135.175 14.4024C134.711 15.3872 134.372 16.4852 134.156 17.6964C133.941 18.8962 133.834 20.0055 133.834 21.0243C133.834 22.6429 134.111 23.8711 134.666 24.7087C135.232 25.535 136.081 25.9482 137.213 25.9482C138.22 25.9482 139.114 25.6313 139.895 24.9974C140.676 24.3635 141.31 23.5598 141.797 22.5863C142.284 21.6355 142.657 20.5489 142.918 19.3264C143.178 18.0925 143.308 16.8304 143.308 15.54Z" fill="#FC714A"/>
<path d="M156.314 11.6009L153.326 25.6256C152.794 28.1385 151.673 30.193 149.964 31.789C148.255 33.385 146.495 34.1831 144.683 34.1831C143.687 34.1831 142.957 33.9906 142.493 33.6058C142.018 33.2322 141.78 32.7568 141.78 32.1795C141.78 31.6928 141.927 31.2627 142.222 30.8891C142.516 30.5156 142.94 30.3288 143.495 30.3288C143.846 30.3288 144.157 30.408 144.429 30.5665C144.689 30.725 144.921 30.9231 145.125 31.1608C145.283 31.3532 145.465 31.6136 145.668 31.9418C145.861 32.2701 146.03 32.5531 146.178 32.7908C147.049 32.7229 147.791 32.1343 148.402 31.025C149.024 29.9157 149.562 28.3309 150.015 26.2708L153.139 11.6009H149.828L150.185 10.0558H153.462L153.699 8.90121C153.971 7.58816 154.401 6.40528 154.99 5.35258C155.578 4.29988 156.246 3.40564 156.993 2.66988C157.729 1.94544 158.561 1.37947 159.489 0.971976C160.429 0.553159 161.329 0.34375 162.189 0.34375C163.185 0.34375 163.915 0.53618 164.379 0.921039C164.855 1.29458 165.092 1.76999 165.092 2.34728C165.092 2.83402 164.951 3.26415 164.668 3.63769C164.396 4.01123 163.966 4.198 163.377 4.198C163.027 4.198 162.721 4.12443 162.461 3.97727C162.2 3.8188 161.968 3.61505 161.764 3.36603C161.538 3.08304 161.357 2.81704 161.221 2.56801C161.085 2.31898 160.915 2.04166 160.712 1.73603C159.931 1.76999 159.24 2.28502 158.64 3.28113C158.04 4.27724 157.497 5.93553 157.01 8.256L156.637 10.0558H160.899L160.542 11.6009H156.314Z" fill="#FC714A"/>
</svg>
