<svg width="246" height="165" viewBox="0 0 246 165" fill="none" xmlns="http://www.w3.org/2000/svg">
<path fill-rule="evenodd" clip-rule="evenodd" d="M42.907 13.1704C44.8 13.1704 46.3346 14.705 46.3346 16.598V75.8259C46.3346 77.7189 44.8 79.2535 42.907 79.2535C41.0141 79.2535 39.4795 77.7189 39.4795 75.8259V16.598C39.4795 14.705 41.0141 13.1704 42.907 13.1704Z" fill="#FC714A"/>
<path fill-rule="evenodd" clip-rule="evenodd" d="M29.7527 19.7437C31.6457 19.7437 33.1803 21.2782 33.1803 23.1712V75.8183C33.1803 77.7113 31.6457 79.2458 29.7527 79.2458C27.8598 79.2458 26.3252 77.7113 26.3252 75.8183V23.1712C26.3252 21.2782 27.8598 19.7437 29.7527 19.7437Z" fill="#FC714A"/>
<path fill-rule="evenodd" clip-rule="evenodd" d="M29.7527 72.3872C31.6457 72.3872 33.1803 73.9218 33.1803 75.8148C33.1803 88.4603 43.4308 98.7107 56.0763 98.7107C57.9693 98.7107 59.5038 100.245 59.5038 102.138C59.5038 104.031 57.9693 105.566 56.0763 105.566C39.6448 105.566 26.3252 92.2462 26.3252 75.8148C26.3252 73.9218 27.8598 72.3872 29.7527 72.3872Z" fill="#FC714A"/>
<path fill-rule="evenodd" clip-rule="evenodd" d="M42.907 72.3872C44.8 72.3872 46.3346 73.9218 46.3346 75.8148C46.3346 81.191 50.6925 85.549 56.0688 85.549C57.9618 85.549 59.4964 87.0835 59.4964 88.9765C59.4964 90.8695 57.9618 92.4041 56.0688 92.4041C46.9066 92.4041 39.4795 84.977 39.4795 75.8148C39.4795 73.9218 41.0141 72.3872 42.907 72.3872Z" fill="#FC714A"/>
<path fill-rule="evenodd" clip-rule="evenodd" d="M16.598 39.4795C18.4909 39.4795 20.0255 41.0141 20.0255 42.907V75.8115C20.0255 95.7262 36.1685 111.869 56.0833 111.869C57.9763 111.869 59.5108 113.404 59.5108 115.297C59.5108 117.19 57.9763 118.724 56.0833 118.724C32.3826 118.724 13.1704 99.5122 13.1704 75.8115V42.907C13.1704 41.0141 14.705 39.4795 16.598 39.4795Z" fill="#FC714A"/>
<path fill-rule="evenodd" clip-rule="evenodd" d="M69.2405 85.5493C71.1335 85.5493 72.6681 87.0839 72.6681 88.9769V141.624C72.6681 143.517 71.1335 145.052 69.2405 145.052C67.3476 145.052 65.813 143.517 65.813 141.624V88.9769C65.813 87.0839 67.3476 85.5493 69.2405 85.5493Z" fill="#FC714A"/>
<path fill-rule="evenodd" clip-rule="evenodd" d="M82.3953 85.5493C84.2883 85.5493 85.8229 87.0839 85.8229 88.9769V108.72C85.8229 110.613 84.2883 112.147 82.3953 112.147C80.5023 112.147 78.9678 110.613 78.9678 108.72V88.9769C78.9678 87.0839 80.5023 85.5493 82.3953 85.5493Z" fill="#FC714A"/>
<path fill-rule="evenodd" clip-rule="evenodd" d="M52.6426 75.8148C52.6426 73.9218 54.1771 72.3872 56.0701 72.3872C65.2324 72.3872 72.6594 79.8143 72.6594 88.9765C72.6594 90.8695 71.1249 92.4041 69.2319 92.4041C67.3389 92.4041 65.8044 90.8695 65.8044 88.9765C65.8044 83.6003 61.4464 79.2423 56.0701 79.2423C54.1771 79.2423 52.6426 77.7077 52.6426 75.8148Z" fill="#FC714A"/>
<path fill-rule="evenodd" clip-rule="evenodd" d="M52.6426 62.6517C52.6426 60.7587 54.1771 59.2241 56.0701 59.2241C72.5016 59.2241 85.8212 72.5437 85.8212 88.9752C85.8212 90.8682 84.2866 92.4028 82.3937 92.4028C80.5007 92.4028 78.9661 90.8682 78.9661 88.9752C78.9661 76.3297 68.7156 66.0792 56.0701 66.0792C54.1771 66.0792 52.6426 64.5446 52.6426 62.6517Z" fill="#FC714A"/>
<path fill-rule="evenodd" clip-rule="evenodd" d="M52.6426 49.4964C52.6426 47.6034 54.1771 46.0688 56.0701 46.0688C71.9579 46.0688 85.8249 54.7051 93.238 67.5231C94.1858 69.1617 93.6256 71.2584 91.987 72.2061C90.3483 73.1538 88.2516 72.5937 87.3039 70.955C81.0657 60.1687 69.412 52.9239 56.0701 52.9239C54.1771 52.9239 52.6426 51.3894 52.6426 49.4964Z" fill="#FC714A"/>
<path fill-rule="evenodd" clip-rule="evenodd" d="M95.5662 85.5493C97.4592 85.5493 98.9938 87.0839 98.9938 88.9769V161.367C98.9938 163.26 97.4592 164.794 95.5662 164.794C93.6732 164.794 92.1387 163.26 92.1387 161.367V88.9769C92.1387 87.0839 93.6732 85.5493 95.5662 85.5493Z" fill="#FC714A"/>
<path fill-rule="evenodd" clip-rule="evenodd" d="M108.721 92.1387C110.613 92.1387 112.148 93.6732 112.148 95.5662V141.632C112.148 143.525 110.613 145.06 108.721 145.06C106.828 145.06 105.293 143.525 105.293 141.632V95.5662C105.293 93.6732 106.828 92.1387 108.721 92.1387Z" fill="#FC714A"/>
<path fill-rule="evenodd" clip-rule="evenodd" d="M19.267 113.615C20.4975 112.177 22.6612 112.008 24.0996 113.239C32.7022 120.598 43.8645 125.039 56.0736 125.039C57.9666 125.039 59.5012 126.574 59.5012 128.467C59.5012 130.36 57.9666 131.894 56.0736 131.894C42.1698 131.894 29.4408 126.829 19.6433 118.448C18.2049 117.217 18.0364 115.053 19.267 113.615Z" fill="#FC714A"/>
<path fill-rule="evenodd" clip-rule="evenodd" d="M3.42755 47.7168C5.32053 47.7168 6.85509 49.2514 6.85509 51.1443V61.0157C6.85509 62.9087 5.32053 64.4432 3.42755 64.4432C1.53456 64.4432 0 62.9087 0 61.0157V51.1443C0 49.2514 1.53456 47.7168 3.42755 47.7168Z" fill="#FC714A"/>
<path fill-rule="evenodd" clip-rule="evenodd" d="M16.598 0C18.4909 0 20.0255 1.53456 20.0255 3.42754V29.7511C20.0255 31.6441 18.4909 33.1786 16.598 33.1786C14.705 33.1786 13.1704 31.6441 13.1704 29.7511V3.42754C13.1704 1.53456 14.705 0 16.598 0Z" fill="#FC714A"/>
<path fill-rule="evenodd" clip-rule="evenodd" d="M3.42755 8.229C5.32053 8.229 6.85509 9.76357 6.85509 11.6565V24.8183C6.85509 26.7113 5.32053 28.2459 3.42755 28.2459C1.53456 28.2459 0 26.7113 0 24.8183V11.6565C0 9.76357 1.53456 8.229 3.42755 8.229Z" fill="#FC714A"/>
<path fill-rule="evenodd" clip-rule="evenodd" d="M78.5828 41.2449C79.5012 39.5896 81.5875 38.9921 83.2428 39.9105C89.6538 43.4671 95.2932 48.2436 99.8463 53.9263C101.03 55.4035 100.792 57.5606 99.3146 58.7443C97.8374 59.9279 95.6803 59.6899 94.4966 58.2126C90.4972 53.2211 85.544 49.0265 79.9172 45.9049C78.2619 44.9865 77.6645 42.9002 78.5828 41.2449Z" fill="#FC714A"/>
<path fill-rule="evenodd" clip-rule="evenodd" d="M100.668 40.4601C102.019 39.1346 104.19 39.1555 105.515 40.5069C107.646 42.6795 109.634 44.993 111.464 47.4294C112.601 48.943 112.296 51.0916 110.782 52.2285C109.269 53.3654 107.12 53.06 105.983 51.5464C104.333 49.3499 102.541 47.2647 100.621 45.3072C99.2957 43.9558 99.3166 41.7857 100.668 40.4601Z" fill="#FC714A"/>
<path fill-rule="evenodd" clip-rule="evenodd" d="M18.9455 130.274C19.9311 128.658 22.0402 128.146 23.6564 129.132C25.3382 130.158 27.0716 131.105 28.8515 131.969C30.5546 132.796 31.2652 134.846 30.4387 136.549C29.6122 138.252 27.5617 138.963 25.8586 138.136C23.8796 137.176 21.954 136.123 20.0874 134.985C18.4712 133.999 17.96 131.89 18.9455 130.274Z" fill="#FC714A"/>
<path d="M131.193 126.741C129.476 126.741 127.906 126.308 126.482 125.442C125.074 124.575 123.953 123.415 123.117 121.961C122.297 120.491 121.887 118.858 121.887 117.064L121.934 102.234C121.934 100.471 122.336 98.8769 123.14 97.4536C123.945 96.0147 125.051 94.8621 126.459 93.9957C127.882 93.1138 129.461 92.6729 131.193 92.6729C132.957 92.6729 134.527 93.0983 135.904 93.9493C137.297 94.8002 138.403 95.9528 139.223 97.4071C140.059 98.846 140.476 100.455 140.476 102.234V104.416C140.476 104.54 140.414 104.601 140.291 104.601H134.953C134.829 104.601 134.767 104.54 134.767 104.416V102.234C134.767 101.182 134.427 100.277 133.746 99.519C133.065 98.7609 132.214 98.3819 131.193 98.3819C130.064 98.3819 129.198 98.7686 128.594 99.5422C127.991 100.316 127.689 101.213 127.689 102.234V117.064C127.689 118.224 128.029 119.176 128.71 119.918C129.391 120.645 130.219 121.009 131.193 121.009C132.214 121.009 133.065 120.607 133.746 119.802C134.427 118.982 134.767 118.069 134.767 117.064V114.859C134.767 114.735 134.829 114.673 134.953 114.673H140.337C140.461 114.673 140.523 114.735 140.523 114.859V117.064C140.523 118.843 140.105 120.468 139.27 121.937C138.419 123.392 137.297 124.56 135.904 125.442C134.512 126.308 132.942 126.741 131.193 126.741Z" fill="black"/>
<path d="M149.55 126.277H144.166C144.042 126.277 143.981 126.2 143.981 126.045L144.027 93.3923C144.027 93.2685 144.104 93.2066 144.259 93.2066H149.55C149.705 93.2066 149.782 93.2685 149.782 93.3923L149.736 106.319H156.861V93.3923C156.861 93.2685 156.923 93.2066 157.046 93.2066H162.338C162.492 93.2066 162.57 93.2685 162.57 93.3923L162.662 126.045C162.662 126.2 162.585 126.277 162.43 126.277H157.093C156.938 126.277 156.861 126.2 156.861 126.045V112.074H149.736V126.045C149.736 126.2 149.674 126.277 149.55 126.277Z" fill="black"/>
<path d="M164.937 126.045L170.831 93.3923C170.862 93.2685 170.94 93.2066 171.064 93.2066H177.956C178.08 93.2066 178.157 93.2685 178.188 93.3923L183.851 126.045C183.866 126.2 183.804 126.277 183.665 126.277H178.397C178.242 126.277 178.157 126.2 178.142 126.045L177.631 122.564H171.156L170.646 126.045C170.63 126.2 170.553 126.277 170.414 126.277H165.122C164.999 126.277 164.937 126.2 164.937 126.045ZM174.73 104.137L174.452 102.374L174.243 104.137L172.108 117.481H176.68L174.73 104.137Z" fill="black"/>
<path d="M191.997 126.277H187.239C186.992 126.277 186.868 126.169 186.868 125.952L186.821 93.5779C186.821 93.3304 186.945 93.2066 187.193 93.2066H191.486L199.516 111.935L199.284 93.5779C199.284 93.3304 199.423 93.2066 199.701 93.2066H204.413C204.598 93.2066 204.691 93.3304 204.691 93.5779L204.737 125.999C204.737 126.184 204.66 126.277 204.505 126.277H200.328L192.089 108.779L192.438 125.906C192.438 126.153 192.291 126.277 191.997 126.277Z" fill="black"/>
<path d="M217.571 126.741C215.854 126.741 214.307 126.316 212.93 125.465C211.537 124.614 210.415 123.469 209.565 122.03C208.729 120.591 208.311 118.982 208.311 117.203V102.141C208.311 100.409 208.737 98.8305 209.588 97.4071C210.423 95.9683 211.545 94.8234 212.953 93.9725C214.361 93.1061 215.9 92.6729 217.571 92.6729C219.319 92.6729 220.897 93.0906 222.305 93.926C223.713 94.777 224.827 95.9141 225.647 97.3375C226.483 98.7609 226.9 100.362 226.9 102.141V104.323C226.9 104.447 226.823 104.509 226.668 104.509H221.331C221.207 104.509 221.145 104.447 221.145 104.323V102.513C221.145 101.306 220.805 100.308 220.124 99.519C219.443 98.73 218.592 98.3354 217.571 98.3354C216.658 98.3354 215.846 98.7145 215.134 99.4726C214.423 100.231 214.067 101.12 214.067 102.141V117.203C214.067 118.24 214.415 119.137 215.111 119.895C215.807 120.638 216.627 121.009 217.571 121.009C218.592 121.009 219.443 120.645 220.124 119.918C220.805 119.176 221.145 118.271 221.145 117.203V114.859H217.826C217.656 114.859 217.571 114.782 217.571 114.627V109.313C217.571 109.158 217.656 109.08 217.826 109.08H226.715C226.839 109.08 226.9 109.158 226.9 109.313V117.203C226.9 118.982 226.483 120.591 225.647 122.03C224.796 123.469 223.675 124.614 222.282 125.465C220.89 126.316 219.319 126.741 217.571 126.741Z" fill="black"/>
<path d="M245.814 126.277H230.451C230.327 126.277 230.265 126.2 230.265 126.045L230.312 93.3923C230.312 93.2685 230.374 93.2066 230.498 93.2066H245.768C245.892 93.2066 245.954 93.284 245.954 93.4387V98.7532C245.954 98.8769 245.892 98.9388 245.768 98.9388H236.021V106.365H245.768C245.892 106.365 245.954 106.427 245.954 106.551L246 111.935C246 112.059 245.938 112.121 245.814 112.121H236.021V120.429H245.814C245.938 120.429 246 120.506 246 120.661V126.091C246 126.215 245.938 126.277 245.814 126.277Z" fill="black"/>
<path d="M112.122 84.1332C110.825 84.1332 109.665 83.9028 108.641 83.4422C107.618 82.9815 106.807 82.2905 106.21 81.3692C105.63 80.4308 105.34 79.2621 105.34 77.8631V77.3256H107.464V77.8631C107.464 79.3474 107.899 80.4564 108.769 81.1901C109.639 81.9066 110.757 82.2649 112.122 82.2649C113.521 82.2649 114.587 81.9493 115.321 81.318C116.055 80.6867 116.421 79.8934 116.421 78.9379C116.421 78.2725 116.251 77.7436 115.909 77.3512C115.585 76.9588 115.125 76.6431 114.527 76.4043C113.93 76.1484 113.231 75.9266 112.429 75.7389L111.098 75.4062C110.057 75.1332 109.136 74.8005 108.334 74.4081C107.532 74.0157 106.901 73.5038 106.44 72.8725C105.997 72.2242 105.775 71.3967 105.775 70.3901C105.775 69.3835 106.022 68.5133 106.517 67.7797C107.029 67.046 107.737 66.483 108.641 66.0906C109.563 65.6982 110.62 65.502 111.815 65.502C113.026 65.502 114.109 65.7152 115.065 66.1418C116.037 66.5512 116.797 67.1655 117.343 67.9844C117.906 68.7863 118.187 69.8015 118.187 71.0299V72.1048H116.063V71.0299C116.063 70.1598 115.875 69.4602 115.5 68.9313C115.142 68.4024 114.638 68.01 113.99 67.7541C113.359 67.4982 112.634 67.3702 111.815 67.3702C110.637 67.3702 109.691 67.6346 108.974 68.1636C108.257 68.6754 107.899 69.4091 107.899 70.3645C107.899 70.9958 108.053 71.5076 108.36 71.9C108.667 72.2925 109.102 72.6166 109.665 72.8725C110.228 73.1114 110.902 73.3247 111.687 73.5124L113.018 73.8451C114.058 74.0669 114.988 74.374 115.807 74.7664C116.643 75.1417 117.309 75.6621 117.803 76.3275C118.298 76.9759 118.545 77.8289 118.545 78.8867C118.545 79.9446 118.281 80.8659 117.752 81.6507C117.223 82.4356 116.473 83.0498 115.5 83.4934C114.545 83.9199 113.418 84.1332 112.122 84.1332Z" fill="black"/>
<path d="M125.481 83.7749V67.8053H119.723V65.8602H133.389V67.8053H127.631V83.7749H125.481Z" fill="black"/>
<path d="M141.826 84.1332C139.693 84.1332 137.987 83.519 136.707 82.2905C135.444 81.045 134.813 79.2365 134.813 76.865V72.7702C134.813 70.3986 135.444 68.5986 136.707 67.3702C137.987 66.1247 139.693 65.502 141.826 65.502C143.975 65.502 145.681 66.1247 146.944 67.3702C148.224 68.5986 148.863 70.3986 148.863 72.7702V76.865C148.863 79.2365 148.224 81.045 146.944 82.2905C145.681 83.519 143.975 84.1332 141.826 84.1332ZM141.826 82.2137C143.378 82.2137 144.581 81.7531 145.434 80.8318C146.287 79.8934 146.714 78.5967 146.714 76.9417V72.6934C146.714 71.0384 146.287 69.7503 145.434 68.829C144.581 67.8906 143.378 67.4214 141.826 67.4214C140.29 67.4214 139.096 67.8906 138.243 68.829C137.39 69.7503 136.963 71.0384 136.963 72.6934V76.9417C136.963 78.5967 137.39 79.8934 138.243 80.8318C139.096 81.7531 140.29 82.2137 141.826 82.2137Z" fill="black"/>
<path d="M152.445 83.7749V65.8602H159.688C160.797 65.8602 161.769 66.0565 162.605 66.4489C163.458 66.8242 164.124 67.3702 164.601 68.0868C165.079 68.7863 165.318 69.6309 165.318 70.6204V70.9019C165.318 72.0792 165.036 73.009 164.473 73.6915C163.91 74.374 163.245 74.8346 162.477 75.0735V75.4318C163.091 75.4488 163.595 75.6536 163.987 76.046C164.397 76.4213 164.601 76.9929 164.601 77.7607V83.7749H162.477V78.0166C162.477 77.5048 162.332 77.1123 162.042 76.8394C161.769 76.5664 161.351 76.4299 160.788 76.4299H154.595V83.7749H152.445ZM154.595 74.4849H159.483C160.66 74.4849 161.564 74.2033 162.196 73.6403C162.844 73.0602 163.168 72.2583 163.168 71.2346V71.0555C163.168 70.0318 162.852 69.2384 162.221 68.6754C161.59 68.0953 160.677 67.8053 159.483 67.8053H154.595V74.4849Z" fill="black"/>
<path d="M168.59 83.7749V65.8602H170.74V83.7749H168.59Z" fill="black"/>
<path d="M174.838 83.7749V65.8602H185.869V67.8053H176.988V73.7939H185.152V75.7389H176.988V81.8299H185.996V83.7749H174.838Z" fill="black"/>
<path d="M195.222 84.1332C193.925 84.1332 192.765 83.9028 191.741 83.4422C190.718 82.9815 189.907 82.2905 189.31 81.3692C188.73 80.4308 188.44 79.2621 188.44 77.8631V77.3256H190.564V77.8631C190.564 79.3474 190.999 80.4564 191.869 81.1901C192.739 81.9066 193.857 82.2649 195.222 82.2649C196.621 82.2649 197.687 81.9493 198.421 81.318C199.155 80.6867 199.521 79.8934 199.521 78.9379C199.521 78.2725 199.351 77.7436 199.01 77.3512C198.685 76.9588 198.225 76.6431 197.628 76.4043C197.03 76.1484 196.331 75.9266 195.529 75.7389L194.198 75.4062C193.157 75.1332 192.236 74.8005 191.434 74.4081C190.632 74.0157 190.001 73.5038 189.54 72.8725C189.097 72.2242 188.875 71.3967 188.875 70.3901C188.875 69.3835 189.122 68.5133 189.617 67.7797C190.129 67.046 190.837 66.483 191.741 66.0906C192.663 65.6982 193.721 65.502 194.915 65.502C196.126 65.502 197.21 65.7152 198.165 66.1418C199.138 66.5512 199.897 67.1655 200.443 67.9844C201.006 68.7863 201.287 69.8015 201.287 71.0299V72.1048H199.163V71.0299C199.163 70.1598 198.975 69.4602 198.6 68.9313C198.242 68.4024 197.739 68.01 197.09 67.7541C196.459 67.4982 195.734 67.3702 194.915 67.3702C193.738 67.3702 192.791 67.6346 192.074 68.1636C191.357 68.6754 190.999 69.4091 190.999 70.3645C190.999 70.9958 191.153 71.5076 191.46 71.9C191.767 72.2925 192.202 72.6166 192.765 72.8725C193.328 73.1114 194.002 73.3247 194.787 73.5124L196.118 73.8451C197.158 74.0669 198.088 74.374 198.907 74.7664C199.743 75.1417 200.409 75.6621 200.903 76.3275C201.398 76.9759 201.646 77.8289 201.646 78.8867C201.646 79.9446 201.381 80.8659 200.852 81.6507C200.323 82.4356 199.573 83.0498 198.6 83.4934C197.645 83.9199 196.519 84.1332 195.222 84.1332Z" fill="black"/>
<path d="M220.579 75.523C220.579 76.5763 220.401 77.6296 220.044 78.6828C219.687 79.7361 219.169 80.6599 218.49 81.4543C217.803 82.2755 216.973 82.936 216 83.4359C215.036 83.9268 213.916 84.1722 212.64 84.1722C211.158 84.1722 209.953 83.6947 209.025 82.7396C208.105 81.7846 207.646 80.4992 207.646 78.8836C207.646 77.6965 207.842 76.5897 208.235 75.5632C208.627 74.5367 209.154 73.6352 209.815 72.8587C210.484 72.0821 211.31 71.4573 212.291 70.9842C213.282 70.5022 214.353 70.2612 215.505 70.2612C217.094 70.2612 218.334 70.7477 219.227 71.7206C220.128 72.6846 220.579 73.9521 220.579 75.523ZM217.848 75.0143C217.848 73.7468 217.62 72.7962 217.165 72.1624C216.719 71.5287 216.072 71.2118 215.224 71.2118C214.483 71.2118 213.782 71.4394 213.122 71.8947C212.47 72.3499 211.908 73.0907 211.435 74.1172C211.069 74.8938 210.801 75.7596 210.631 76.7147C210.462 77.6608 210.377 78.5355 210.377 79.3389C210.377 80.6153 210.596 81.5837 211.033 82.2442C211.479 82.8958 212.149 83.2216 213.041 83.2216C213.836 83.2216 214.541 82.9717 215.157 82.4719C215.773 81.972 216.272 81.3383 216.656 80.5706C217.04 79.8209 217.335 78.964 217.54 78C217.745 77.0271 217.848 76.0318 217.848 75.0143Z" fill="#FC714A"/>
<path d="M228.104 71.9081L225.747 82.9672C225.328 84.9488 224.444 86.5688 223.096 87.8274C221.748 89.0859 220.36 89.7152 218.932 89.7152C218.147 89.7152 217.571 89.5635 217.205 89.26C216.83 88.9654 216.643 88.5906 216.643 88.1353C216.643 87.7515 216.759 87.4123 216.991 87.1178C217.223 86.8232 217.558 86.676 217.995 86.676C218.272 86.676 218.517 86.7384 218.731 86.8634C218.937 86.9884 219.12 87.1446 219.28 87.332C219.405 87.4837 219.548 87.689 219.709 87.9479C219.861 88.2067 219.994 88.4299 220.111 88.6173C220.798 88.5638 221.382 88.0996 221.864 87.2249C222.355 86.3502 222.779 85.1005 223.136 83.476L225.6 71.9081H222.989L223.27 70.6897H225.854L226.042 69.7792C226.256 68.7438 226.595 67.8111 227.059 66.981C227.523 66.1509 228.05 65.4457 228.639 64.8655C229.219 64.2943 229.875 63.848 230.607 63.5266C231.348 63.1964 232.058 63.0312 232.736 63.0312C233.522 63.0312 234.097 63.183 234.463 63.4865C234.838 63.781 235.026 64.1559 235.026 64.6111C235.026 64.9949 234.914 65.3341 234.691 65.6287C234.477 65.9232 234.138 66.0705 233.673 66.0705C233.397 66.0705 233.156 66.0125 232.95 65.8965C232.745 65.7715 232.562 65.6108 232.401 65.4145C232.223 65.1913 232.08 64.9816 231.973 64.7852C231.866 64.5888 231.732 64.3701 231.571 64.1291C230.955 64.1559 230.411 64.562 229.938 65.3475C229.465 66.133 229.036 67.4406 228.653 69.2705L228.358 70.6897H231.719L231.437 71.9081H228.104Z" fill="#FC714A"/>
</svg>
